<?xml version="1.0" encoding="UTF-8" standalone="no"?>
<!-- Generator: Adobe Illustrator 25.0.1, SVG Export Plug-In . SVG Version: 6.00 Build 0)  -->

<svg
   version="1.0"
   id="Layer_1"
   x="0px"
   y="0px"
   viewBox="0 0 227 134"
   style="enable-background:new 0 0 227 134;"
   xml:space="preserve"
   sodipodi:docname="logo.svg"
   inkscape:version="1.2.2 (b0a84865, 2022-12-01)"
   xmlns:inkscape="http://www.inkscape.org/namespaces/inkscape"
   xmlns:sodipodi="http://sodipodi.sourceforge.net/DTD/sodipodi-0.dtd"
   xmlns="http://www.w3.org/2000/svg"
   xmlns:svg="http://www.w3.org/2000/svg"><defs
   id="defs120" /><sodipodi:namedview
   id="namedview118"
   pagecolor="#ffffff"
   bordercolor="#000000"
   borderopacity="0.25"
   inkscape:showpageshadow="2"
   inkscape:pageopacity="0.0"
   inkscape:pagecheckerboard="0"
   inkscape:deskcolor="#d1d1d1"
   showgrid="false"
   inkscape:zoom="1.761194"
   inkscape:cx="113.84322"
   inkscape:cy="67"
   inkscape:window-width="1309"
   inkscape:window-height="456"
   inkscape:window-x="0"
   inkscape:window-y="25"
   inkscape:window-maximized="0"
   inkscape:current-layer="Layer_1" />
<style
   type="text/css"
   id="style85">
	.st0{fill:#303A56;}
	.st1{opacity:0.65;fill:#181D2B;enable-background:new    ;}
	.st2{fill:#1D2334;}
	.st3{fill:#F59D15;}
	.st4{fill:none;}
</style>
<path
   class="st0"
   d="M55.7,59.7c0-0.8,0.3-1.2,1.2-1.2h6.4c5.9,0,9.2,3.6,9.2,10.1s-3.3,10.1-9.2,10.1h-6.4c-0.8,0-1.2-0.3-1.2-1.2  V59.7z M63.3,74.9c3.1,0,4.7-2.2,4.7-6.3s-1.6-6.3-4.7-6.3h-3.1v12.6H63.3z"
   id="path87"
   style="fill:#f9f9f9" />
<path
   class="st0"
   d="M72,77.6L78.4,59c0.2-0.5,0.8-0.6,1.6-0.6h1.5c0.8,0,1.5,0.2,1.7,0.6l6.3,18.5c0.1,0.2,0.1,0.3,0.1,0.5  c0,0.4-0.4,0.6-1.4,0.6h-1.3c-0.8,0-1.5-0.2-1.6-0.6l-1.2-3.5h-6.8l-1.1,3.5c-0.1,0.4-0.6,0.6-1.3,0.6h-1.1c-1.2,0-1.8-0.2-1.8-0.6  C71.9,77.9,72,77.7,72,77.6z M82.9,70.8l-1.6-5.1c-0.2-0.4-0.4-1.8-0.4-1.8h-0.1c0,0-0.3,1.3-0.4,1.8l-1.7,5.1H82.9z"
   id="path89"
   style="fill:#f9f9f9" />
<path
   class="st0"
   d="M91.6,59.7c0-0.8,0.3-1.2,1.2-1.2h5.6c5,0,7.2,2,7.2,5.4c0,2.1-1.4,3.9-3.4,4.6v0.1c1,0.6,1.7,1.6,2.1,2.7  l2.5,6.3c0.1,0.2,0.1,0.4,0.2,0.6c0,0.3-0.6,0.6-1.7,0.6H104c-0.8,0-1.5-0.2-1.7-0.6l-2.3-5.6c-0.6-1.2-1-1.7-2.9-1.7H96v7  c0,0.6-0.5,0.9-1.7,0.9h-1c-1.2,0-1.7-0.3-1.7-0.9L91.6,59.7z M98.7,66.9c1.3-0.1,2.3-1.2,2.2-2.5c0-1.2-0.9-2.2-2.1-2.2  c-0.1,0-0.2,0-0.3,0H96v4.7L98.7,66.9z"
   id="path91"
   style="fill:#f9f9f9" />
<path
   class="st0"
   d="M109.1,59.4c0-0.6,0.5-0.9,1.7-0.9h1c1.2,0,1.7,0.3,1.7,0.9v7.7h0.1l5-8.1c0.3-0.4,0.9-0.6,1.7-0.6h1.4  c1.1,0,1.6,0.2,1.6,0.4c0,0.2-0.1,0.4-0.2,0.6l-5.6,8.6l6.3,9.7c0.1,0.2,0.2,0.4,0.2,0.6c0,0.3-0.5,0.4-1.6,0.4h-1.7  c-0.8,0-1.5-0.1-1.8-0.6l-5.4-8.8h-0.1v8.3c0,0.6-0.5,0.9-1.7,0.9h-1c-1.2,0-1.7-0.3-1.7-0.9L109.1,59.4z"
   id="path93"
   style="fill:#f9f9f9" />
<path
   class="st1"
   d="M48.1,57.8c-1,0.4-2.2-0.1-2.6-1.1c-0.4-1,0.1-2.2,1.1-2.6s2.2,0.1,2.6,1.1c0,0,0,0,0,0  C49.6,56.3,49.1,57.4,48.1,57.8z"
   id="path95"
   style="fill:#f9f9f9" />
<path
   class="st2"
   d="M131.4,60.7h-5.5c-0.4,0-0.6-0.3-0.6-0.9v-0.5c0-0.6,0.2-0.9,0.6-0.9h13.5c0.4,0,0.6,0.3,0.6,0.9v0.5  c0,0.6-0.2,0.9-0.6,0.9h-5.4v17.4c0,0.4-0.3,0.6-1.2,0.6h-0.2c-0.8,0-1.2-0.2-1.2-0.6V60.7z"
   id="path97"
   style="fill:#f9f9f9" />
<path
   class="st2"
   d="M141.7,59.4c0-0.6,0.3-0.9,0.9-0.9h4.8c4.5,0,6.9,1.5,6.9,5.1c0.1,2.2-1.3,4.2-3.3,4.9v0.1  c1.2,0.4,1.8,1.7,2.6,3.6l2.2,5.7c0,0.1,0.1,0.3,0.1,0.4c0,0.3-0.4,0.5-1.2,0.5h-0.3c-0.6,0-1-0.2-1.1-0.5l-2.2-5.6  c-0.9-2.2-2-2.8-4.3-2.8h-2.6v8.3c0,0.4-0.4,0.6-1.2,0.6h-0.2c-0.8,0-1.1-0.2-1.1-0.6L141.7,59.4L141.7,59.4z M148.1,67.6  c2,0,3.6-1.5,3.7-3.5c0-2.3-1.6-3.4-3.9-3.4h-3.6v6.9L148.1,67.6z"
   id="path99"
   style="fill:#f9f9f9" />
<path
   class="st2"
   d="M157.2,77.8l6.8-18.9c0.1-0.3,0.6-0.5,1.2-0.5h0.8c0.6,0,1,0.1,1.1,0.5l6.8,18.9c0.1,0.1,0.1,0.2,0.1,0.4  c0,0.3-0.4,0.5-1.2,0.5h-0.2c-0.6,0-1-0.1-1.1-0.5l-1.7-4.7h-8.5l-1.6,4.7c-0.1,0.3-0.6,0.5-1.1,0.5h-0.1c-0.9,0-1.2-0.2-1.2-0.5  C157.1,78.1,157.2,77.9,157.2,77.8z M169,71.3l-3-8.6l-0.4-1.7l-0.5,1.7l-3,8.6H169z"
   id="path101"
   style="fill:#f9f9f9" />
<path
   class="st2"
   d="M183.3,58.3c2.9,0,5.5,1,5.5,1.8c0,0.5-0.6,1.7-1,1.7c-1.4-0.8-2.9-1.2-4.5-1.3c-4.6,0-6.8,2.4-6.8,8.1  s2.1,8,6.6,8c3,0,4.6-1.4,4.9-1.4s1,1.2,1,1.6c0,0.8-2.6,2.1-5.9,2.1c-6.3,0-9.3-3.2-9.3-10.2S177.1,58.3,183.3,58.3z"
   id="path103"
   style="fill:#f9f9f9" />
<path
   class="st2"
   d="M191.3,59.4c0-0.6,0.2-0.9,0.9-0.9h10c0.4,0,0.6,0.3,0.6,0.9v0.5c0,0.6-0.2,0.9-0.6,0.9h-8.4v6.6h7.5  c0.4,0,0.6,0.3,0.6,0.9v0.5c0,0.6-0.2,0.9-0.6,0.9h-7.5v7h8.4c0.4,0,0.6,0.3,0.6,0.9v0.5c0,0.6-0.2,0.9-0.6,0.9h-10  c-0.6,0-0.9-0.3-0.9-0.9V59.4z"
   id="path105"
   style="fill:#f9f9f9" />
<path
   class="st0"
   d="M51,54.6c-0.6-1.5-2-2.5-3.7-2.5c-0.5,0-1,0.1-1.4,0.3c-2,0.8-3,3-2.3,5.1c0,0,0,0,0,0c0.1,0.3,0.3,0.7,0.5,0.9  L39.4,63c-1.2-1.1-2.8-1.7-4.4-1.7c-0.8,0-1.6,0.1-2.4,0.4c-0.9,0.3-1.7,0.9-2.4,1.6l-2.3-2c0-0.1,0.1-0.1,0.1-0.2  c0.2-0.5,0.2-1,0-1.5c-0.3-0.7-1-1.2-1.8-1.2c-0.3,0-0.6,0.1-0.8,0.2c-1,0.5-1.3,1.8-0.8,2.7c0.5,0.8,1.5,1.2,2.4,0.9  c0.1-0.1,0.2-0.1,0.3-0.2l2.4,2c-0.3,0.4-0.5,0.7-0.7,1.1c-1.5,3.3,0,7.2,3.4,8.7c0.8,0.4,1.7,0.6,2.6,0.6c0.4,0,0.8,0,1.3-0.1  l0.9,3.1c-1.2,0.6-1.6,2.1-1,3.2c0.4,0.8,1.2,1.3,2.1,1.3c0.2,0,0.5,0,0.7-0.1c1.3-0.4,1.9-1.7,1.5-3c-0.3-1-1.2-1.7-2.3-1.7h-0.1  l-0.9-3.1h0.1c3.4-1.3,5.1-5.1,3.8-8.5c-0.3-0.7-0.6-1.3-1.1-1.8l4.8-4.7c1.7,1.4,4.2,1.1,5.5-0.6C51.3,57.4,51.5,55.9,51,54.6  L51,54.6z M38.7,80.9c-0.1,0-0.3,0.1-0.4,0.1c-0.8,0-1.4-0.6-1.4-1.4c0-0.6,0.4-1.2,1-1.3c0.1,0,0.3-0.1,0.4-0.1  c0.6,0,1.1,0.4,1.3,1C39.8,79.9,39.4,80.7,38.7,80.9L38.7,80.9z M37.1,78.4L37.1,78.4z M26.7,61.6c-0.7,0.2-1.4-0.1-1.6-0.8  c-0.2-0.6,0.1-1.2,0.6-1.5c0.6-0.3,1.4,0,1.7,0.6c0.1,0.3,0.1,0.7,0,1C27.2,61.2,27,61.4,26.7,61.6z M37,73.1  c-2.9,1.1-6.1-0.3-7.2-3.2c0,0,0,0,0,0c-1.1-2.9,0.3-6.1,3.2-7.2c0,0,0,0,0,0c0.6-0.2,1.3-0.4,2-0.4c3.1,0,5.6,2.5,5.6,5.6  C40.6,70.2,39.2,72.2,37,73.1L37,73.1z M47.4,58.9c-1.2,0-2.3-0.8-2.7-1.9c-0.6-1.5,0.2-3.2,1.7-3.8c1.5-0.6,3.2,0.2,3.8,1.7  c0.6,1.5-0.2,3.2-1.7,3.8l0,0C48.1,58.8,47.7,58.9,47.4,58.9z M51,55.5L51,55.5z"
   id="path107"
   style="fill:#f9f9f9" />
<path
   class="st3"
   d="M36.5,71.8c-2.1,0.8-4.5-0.2-5.4-2.4c-0.8-2.1,0.2-4.5,2.4-5.4s4.5,0.2,5.4,2.4c0,0,0,0,0,0  C39.7,68.6,38.6,71,36.5,71.8z"
   id="path109"
   style="fill:#f9f9f9" />
<path
   class="st1"
   d="M38.6,80.4c-0.5,0.2-1-0.1-1.2-0.5c-0.1-0.5,0.1-1,0.6-1.1c0.4-0.1,0.9,0.1,1.1,0.5  C39.3,79.7,39.1,80.2,38.6,80.4C38.6,80.4,38.6,80.4,38.6,80.4z"
   id="path111"
   style="fill:#f9f9f9" />
<path
   class="st1"
   d="M26.4,61.1c-0.3,0.1-0.7,0-0.9-0.4s0-0.7,0.4-0.9c0.3-0.1,0.7,0,0.9,0.4c0,0,0,0,0,0  C26.9,60.5,26.8,60.9,26.4,61.1z"
   id="path113"
   style="fill:#f9f9f9" />
<rect
   x="18"
   y="47"
   class="st4"
   width="191"
   height="40"
   id="rect115" />
</svg>
