<?xml version="1.0" encoding="UTF-8" standalone="no"?>
<!-- Uploaded to: SVG Repo, www.svgrepo.com, Generator: SVG Repo Mixer Tools -->

<svg
   width="800px"
   height="800px"
   viewBox="0 0 24 24"
   fill="none"
   version="1.1"
   id="svg10122"
   sodipodi:docname="add.svg"
   inkscape:version="1.2.2 (b0a84865, 2022-12-01)"
   xmlns:inkscape="http://www.inkscape.org/namespaces/inkscape"
   xmlns:sodipodi="http://sodipodi.sourceforge.net/DTD/sodipodi-0.dtd"
   xmlns="http://www.w3.org/2000/svg"
   xmlns:svg="http://www.w3.org/2000/svg">
  <defs
     id="defs10126" />
  <sodipodi:namedview
     id="namedview10124"
     pagecolor="#ffffff"
     bordercolor="#000000"
     borderopacity="0.25"
     inkscape:showpageshadow="2"
     inkscape:pageopacity="0.0"
     inkscape:pagecheckerboard="0"
     inkscape:deskcolor="#d1d1d1"
     showgrid="false"
     inkscape:zoom="0.295"
     inkscape:cx="400"
     inkscape:cy="400"
     inkscape:window-width="1309"
     inkscape:window-height="456"
     inkscape:window-x="0"
     inkscape:window-y="25"
     inkscape:window-maximized="0"
     inkscape:current-layer="svg10122" />
  <path
     d="M16.19 2H7.81C4.17 2 2 4.17 2 7.81V16.18C2 19.83 4.17 22 7.81 22H16.18C19.82 22 21.99 19.83 21.99 16.19V7.81C22 4.17 19.83 2 16.19 2ZM16 12.75H12.75V16C12.75 16.41 12.41 16.75 12 16.75C11.59 16.75 11.25 16.41 11.25 16V12.75H8C7.59 12.75 7.25 12.41 7.25 12C7.25 11.59 7.59 11.25 8 11.25H11.25V8C11.25 7.59 11.59 7.25 12 7.25C12.41 7.25 12.75 7.59 12.75 8V11.25H16C16.41 11.25 16.75 11.59 16.75 12C16.75 12.41 16.41 12.75 16 12.75Z"
     fill="#292D32"
     id="path10120"
     style="fill:#ffffff" />
</svg>
