<?xml version="1.0" encoding="UTF-8" standalone="no"?>
<svg
   viewBox="0,0,256,256"
   width="24px"
   height="24px"
   fill-rule="nonzero"
   version="1.1"
   id="svg4380"
   sodipodi:docname="delete.svg"
   inkscape:version="1.2.2 (b0a84865, 2022-12-01)"
   xmlns:inkscape="http://www.inkscape.org/namespaces/inkscape"
   xmlns:sodipodi="http://sodipodi.sourceforge.net/DTD/sodipodi-0.dtd"
   xmlns="http://www.w3.org/2000/svg"
   xmlns:svg="http://www.w3.org/2000/svg">
  <defs
     id="defs4384" />
  <sodipodi:namedview
     id="namedview4382"
     pagecolor="#ffffff"
     bordercolor="#000000"
     borderopacity="0.25"
     inkscape:showpageshadow="2"
     inkscape:pageopacity="0.0"
     inkscape:pagecheckerboard="0"
     inkscape:deskcolor="#d1d1d1"
     showgrid="false"
     inkscape:zoom="13.076368"
     inkscape:cx="15.753609"
     inkscape:cy="10.629863"
     inkscape:window-width="1309"
     inkscape:window-height="456"
     inkscape:window-x="0"
     inkscape:window-y="25"
     inkscape:window-maximized="0"
     inkscape:current-layer="svg4380" />
  <g
     fill="#ffffff"
     fill-rule="nonzero"
     stroke="none"
     stroke-width="1"
     stroke-linecap="butt"
     stroke-linejoin="miter"
     stroke-miterlimit="10"
     stroke-dasharray=""
     stroke-dashoffset="0"
     font-family="none"
     font-weight="none"
     font-size="none"
     text-anchor="none"
     style="mix-blend-mode: normal"
     id="g4378">
    <g
       transform="scale(10.66667,10.66667)"
       id="g4376">
      <path
         d="M10.80664,2c-0.517,0 -1.01095,0.20431 -1.37695,0.57031l-0.42969,0.42969h-5c-0.36064,-0.0051 -0.69608,0.18438 -0.87789,0.49587c-0.18181,0.3115 -0.18181,0.69676 0,1.00825c0.18181,0.3115 0.51725,0.50097 0.87789,0.49587h16c0.36064,0.0051 0.69608,-0.18438 0.87789,-0.49587c0.18181,-0.3115 0.18181,-0.69676 0,-1.00825c-0.18181,-0.3115 -0.51725,-0.50097 -0.87789,-0.49587h-5l-0.42969,-0.42969c-0.365,-0.366 -0.85995,-0.57031 -1.37695,-0.57031zM4.36523,7l1.52734,13.26367c0.132,0.99 0.98442,1.73633 1.98242,1.73633h8.24805c0.998,0 1.85138,-0.74514 1.98438,-1.74414l1.52734,-13.25586z"
         id="path4374" />
    </g>
  </g>
</svg>
